<svg width="29" height="18" viewBox="0 0 29 18" fill="none" xmlns="http://www.w3.org/2000/svg">
<path d="M19.3332 0C17.5704 0 15.9232 0.446169 14.5 1.21431C13.0768 0.446507 11.4296 0 9.66679 0C4.32825 0 0 4.0297 0 9C0 13.971 4.32825 18 9.66679 18C11.4296 18 13.0768 17.5538 14.5 16.7857C15.9232 17.5535 17.5704 18 19.3332 18C24.6728 18 29 13.971 29 9C29 4.0297 24.6728 0 19.3332 0ZM9.66679 15.7499C5.66878 15.7499 2.41679 12.7219 2.41679 9C2.41679 5.2781 5.66878 2.25008 9.66679 2.25008C10.6296 2.25008 11.5474 2.42896 12.3892 2.74789C10.7075 4.36821 9.66679 6.57003 9.66679 9C9.66679 11.4313 10.7061 13.6331 12.3892 15.2521C11.5474 15.571 10.6296 15.7499 9.66679 15.7499ZM14.5 14.0172C13.0203 12.7803 12.0832 10.9929 12.0832 9C12.0832 7.00709 13.0203 5.21971 14.5 3.98279C15.9797 5.21971 16.9168 7.00709 16.9168 9C16.9168 10.9929 15.9797 12.7803 14.5 14.0172ZM19.3332 15.7499C18.3704 15.7499 17.4526 15.571 16.6123 15.2521C18.2939 13.6328 19.3332 11.4313 19.3332 9C19.3332 6.57003 18.2939 4.36686 16.6108 2.74789C17.4526 2.42896 18.3704 2.25008 19.3332 2.25008C23.3312 2.25008 26.5832 5.2781 26.5832 9C26.5832 12.7219 23.3312 15.7499 19.3332 15.7499Z" fill="#0066FF"/>
</svg>
